<?xml version="1.0" encoding="UTF-8"?>
<svg id="Layer_1" data-name="Layer 1" xmlns="http://www.w3.org/2000/svg" xmlns:xlink="http://www.w3.org/1999/xlink" viewBox="0 0 1400 1000">
  <defs>
    <style>
      .cls-1 {
        fill: #db932a;
      }

      .cls-1, .cls-2, .cls-3, .cls-4 {
        stroke-width: 0px;
      }

      .cls-2 {
        fill: none;
      }

      .cls-5 {
        clip-path: url(#clippath);
      }

      .cls-3 {
        fill: #007194;
      }

      .cls-4 {
        fill: #fff;
      }
    </style>
    <clipPath id="clippath">
      <rect class="cls-2" width="1400" height="1000"/>
    </clipPath>
  </defs>
  <g class="cls-5">
    <path class="cls-3" d="M405.04,574.44c1.01-.93,4.79-1.33,11.37-1.22v-1.03h-37.41v1.03c5.84,0,9.37.4,10.59,1.2,1.21.8,1.94,2.02,2.16,3.7v67.7c.08,2.95-.49,4.89-1.7,5.8-1.22.92-4.9,1.32-11.04,1.2v1.03h37.41v-1.03c-6.72-.03-10.55-.71-11.48-2.01-.93-1.31-1.36-2.97-1.28-4.98v-67.7c-.08-1.52.4-2.74,1.39-3.67"/>
    <path class="cls-3" d="M484.03,572.2v.8c3.56-.22,6.3.98,8.17,3.64,1.88,2.67,2.82,7.14,2.82,13.45v40.92l-27.05-29.43-25.39-27.56-.85-.91c-.58-.61-1.31-.92-2.22-.92h-20.66v.85c7.02.2,10.7,2.73,11.05,7.64v55.28c-.04,6.41-.63,10.86-1.77,13.35-1.13,2.49-4.23,3.71-9.27,3.67v.85h28.3v-.8c-4.83.04-7.86-1.22-9.11-3.75-1.26-2.54-1.88-6.98-1.88-13.32v-49.08l62.96,68.26h2.17v-65.06c0-6.34.79-10.83,2.36-13.47,1.58-2.63,4.49-3.83,8.74-3.56v-.85h-28.35Z"/>
    <path class="cls-3" d="M619.25,583.58l-.29-10.5h-77.08v20.98h1.7c.3-10.34,3.74-15.99,10.3-16.95h19.93l.06,64.31c0,4.38-.91,7.51-2.73,9.37-1.83,1.87-5.12,2.8-9.9,2.8v.86h39.22v-.86c-4.89-.16-8.26-1.12-10.07-2.91-1.83-1.78-2.73-4.87-2.73-9.25l.05-64.31h16.06c3.11.16,5.83,1.39,8.17,3.7,2.33,2.3,4.35,6.72,6.06,13.25h1.65l-.4-10.48Z"/>
    <path class="cls-3" d="M702.89,652.97c-3.62.19-6.35-.66-8.23-2.57-1.86-1.91-2.74-5.1-2.63-9.55v-55.39c0-4.35,1.06-7.5,3.16-9.46,2.09-1.97,4.66-2.84,7.7-2.61v-.92h-34.88v.86c3.31-.08,6.13.84,8.46,2.74,2.32,1.91,3.49,5.04,3.49,9.39v24.37h-35.87v-24.37c0-4.35.92-7.5,2.75-9.46,1.83-1.97,4.89-2.85,9.21-2.66v-.86h-35.05v.86c3.54.16,6.26,1.12,8.17,2.92,1.9,1.79,2.85,4.86,2.85,9.21v55.39c0,4.35-1,7.45-3,9.32-2.01,1.87-4.68,2.81-8.03,2.81v.86h35.05v-.86c-3.88-.08-6.85-1.03-8.89-2.86-2.04-1.83-3.06-4.92-3.06-9.26v-25.93h35.87v25.93c-.03,4.81-1.11,8.05-3.23,9.72-2.12,1.68-5.01,2.48-8.67,2.4l.07.86h34.81l-.06-.86Z"/>
    <path class="cls-3" d="M765.77,573.17c-.03-.69-.53-1-1.48-.92h-60.71v.85c3.78.2,6.46,1.17,8.02,2.93,1.55,1.77,2.29,4.84,2.22,9.24v55.53c0,4.67-1.01,7.91-3,9.73-1.99,1.81-4.4,2.63-7.25,2.44v.85h45.35v-5.68h-17.88c-3.26,0-5.04-1.56-5.34-4.67v-29.87h16.78c4.67-.03,8.22.56,10.64,1.82,2.28,1.75,3.89,4.87,4.83,9.38h1.03v-27.3h-.91c-.23,4.03-1.56,6.89-3.98,8.59-2.54,1.48-6.42,2.3-11.62,2.44h-16.78v-27.19c0-1.78.28-2.96.82-3.55.55-.59,1.66-.88,3.33-.88h14.86c7.13-.08,12.19.93,15.19,3.02,3,2.08,4.69,5.5,5.07,10.24h.85l-.06-17.01ZM768.56,642.46c-3.26,3.72-7.09,5.62-11.49,5.69h-8.13v5.68h13.03l7.57-11.38h-.97Z"/>
    <path class="cls-3" d="M891.2,575.81c1.29-1.7,4.03-2.51,8.2-2.48v-.86h-23.17l-25.91,61.5-26.98-61.5h-23.17v.86c3.45.08,6.22,1,8.29,2.77,2.07,1.77,3.07,6.5,2.99,14.2v45.68c.08,6.48-.84,10.94-2.73,13.37-1.89,2.45-4.75,3.67-8.54,3.67v.81h27.68v-.86c-4.53-.19-7.52-1.25-9.03-3.14-1.49-1.91-2.25-6.52-2.25-13.84v-49.43l29.49,67.28h1.82l29.49-70.17v57.18c.08,4.19-.71,7.26-2.36,9.21-1.66,1.94-4.63,2.92-8.91,2.92v.86h33.3v-.86c-4.06.08-6.76-.84-8.11-2.74-1.35-1.91-2.03-5.04-2.03-9.39v-55.39c0-4.74.64-7.95,1.94-9.64"/>
    <path class="cls-3" d="M926.92,574.44c1.01-.93,4.79-1.33,11.35-1.22v-1.03h-37.39v1.03c5.84,0,9.37.4,10.58,1.2,1.22.8,1.94,2.02,2.17,3.7v67.7c.08,2.95-.5,4.89-1.7,5.8-1.22.92-4.9,1.32-11.04,1.2v1.03h37.39v-1.03c-6.72-.03-10.53-.71-11.46-2.01-.93-1.31-1.36-2.97-1.28-4.98v-67.7c-.08-1.52.39-2.74,1.39-3.67"/>
    <path class="cls-3" d="M1012.63,575.31c2.88-1.95,5.68-2.86,8.37-2.74v-.87h-28.75v.87c4.14-.11,6.62,1.01,7.44,3.38.81,2.38-.49,5.76-3.91,10.16l-13.15,17.61-9.56-14.58c-3.8-5.72-5.1-9.92-3.91-12.6,1.2-2.69,3.75-3.99,7.66-3.91v-.93h-36.09v.93c2.69.08,5.48,1.17,8.37,3.27,2.88,2.11,5.81,5.43,8.77,9.98l17.65,27.42-20.44,27.42c-3.26,4.66-5.84,7.86-7.75,9.59-1.89,1.72-4.1,2.62-6.6,2.65v.87h26.92v-2.34c-5.43-.11-8.35-1.25-8.77-3.41-.42-2.16,1.54-6.06,5.87-11.69l13.71-18.38,11.73,18.38c4.03,6.18,5.27,10.46,3.73,12.8-1.54,2.36-4.11,3.61-7.71,3.77v.87h34.78v-.87c-3.3-.43-5.77-1.29-7.4-2.6-1.63-1.3-3.89-4.52-6.77-9.65l-21.18-32.38,17.6-23.52c3.38-4.39,6.51-7.56,9.4-9.5"/>
    <path class="cls-3" d="M943.33,521.7c-3.08-2.8-7.82-2.48-11.4-.94-3.91,1.54-6.48,5.9-10.96,5.94-3-.11-6-.62-9-.28-.62.07-1.24.12-1.85.14-1.66.08-3.3.04-4.96-.03-2.96-.13-5.93-.41-8.89-.34-2.57.09-5.14.18-7.7.23-.99.03-1.97.05-2.97.09-8.17.21-16.33.34-24.48.53-9.33-.53-18.67.15-27.98.45-4.42-.73-8.39-3.43-12.95-3.6-4.11-.31-7.61,2.19-11.2,3.76-2.82-.34-5.48-1.73-8.37-1.89-4.36-.62-8.76.4-12.59,2.47-6.41-2.78-13.96-3.35-20.37-.31-6-2.8-13.36-4.02-19.3-.4.24.37.75,1.12,1,1.49-7.6-3.48-16.79-4.75-24.52-.95-6.15-2.87-13.48-3.26-19.59-.02-6.22-3.25-13.93-4.17-20.21-.55-6.97-3.54-15.57-3.71-22.33.4-6.84-3-15.92-5.37-22.08.35-5.34-2.12-10.97-3.56-16.72-3.85-4.66-.31-9.3.28-13.96.42-16.47.45-32.82-1.8-49.27-1.85-10.1-.05-20.26-1.46-29.77-4.99-6.72-2.33-12.87-5.91-19.08-9.36-1.01-.54-2.02-1.1-3.02-1.64-1.08-.59-2.18-1.16-3.29-1.73-4.38-2.25-8.79-4.56-13.36-6.42-1.6-.66-3.22-1.25-4.88-1.78-1.98-.62-3.99-1.12-6.05-1.47-5.47-.96-11.09.14-16.22,2.05-5,1.87-9.24,5.94-10.8,11.1-2.1,6.67-.56,13.88,2.08,20.15,3.75,7.96,10.05,14.96,18.16,18.6,12.58,6.14,27.88,8.62,41.06,2.83,6.93-3.37,13.72-7.02,20.44-10.77,8.52-4.48,18.34-5.52,27.83-5.55,15.07.12,30.16.33,45.22.44,5.61.05,11.24.08,16.83.74,3.32.33,6.76.98,10.03-.04,1.98-.59,3.61-1.93,5.22-3.15,4.45,1.85,8.89,4.37,13.86,4.25,3.09-.02,5.89-1.48,8.57-2.88-.45-.74-.91-1.49-1.35-2.21,4.66,2.02,9.39,4.51,14.6,4.53,3.76.04,7.23-1.64,10.57-3.15,2.35,1.12,4.67,2.41,7.27,2.79,4.08.31,8.05-1.26,11.62-3.08,6.3,3.13,15.23,6.44,21.02.59,6.73,3.15,15.27,4.2,21.58-.46,3.67,1.83,7.55,3.89,11.8,3.56,3.18-.01,5.87-1.94,8.59-3.33,3.8,2.33,8.17,4.35,12.74,3.72,3.04-.61,5.78-2.2,8.68-3.23,2.4.97,4.84,1.97,7.44,2.32,4.55.72,8.84-1.44,13.12-2.62,2.8,1.26,5.63,2.66,8.74,2.89,5.64.34,11.01-2.18,16.59-2.37,6.15,2.33,12.78,1.57,19.21,1.6,8.38.12,16.72-1.15,25.1-.69,8.94.15,17.88-.44,26.84-.24,4.68.13,9.46-.85,14.04.41,5.82,1.49,11.33,4.47,17.43,4.68,2.93.14,5.82-1.69,6.85-4.47,1.63-4.3.62-9.62-2.66-12.89M630.83,532.49c-5.05-.43-10.07-1.12-15.15-1.12-16.97-.21-33.93-.35-50.91-.52-10.26-.08-20.89.99-30.12,5.81-6.72,3.72-13.48,7.4-20.39,10.74-12.18,5.32-26.26,3.02-37.91-2.53-8.06-3.44-14.18-10.49-17.64-18.4-2.39-6.29-3.66-13.87,0-19.94,3.12-5.07,9.2-6.92,14.72-7.85,4.71-.84,9.39.28,13.88,1.8,1.21.4,2.41.83,3.59,1.27.45.2.91.39,1.35.59,5.74,2.49,11.29,5.4,16.8,8.41,1.03.55,2.05,1.11,3.07,1.67,2.1,1.14,4.19,2.3,6.3,3.43,10.27,5.57,21.7,8.96,33.35,9.89,5.8.52,11.62.37,17.44.61,15.44.65,30.91,2.48,46.37,1.36,7.54-.62,15.29.08,22.32,3.02-2.15,1.2-4.56,2.07-7.06,1.76M654.35,533.05c-3.77-.1-7.2-1.93-10.56-3.46,5.62-3.21,12.24-1.13,17.72,1.26-2.25,1.07-4.59,2.29-7.16,2.2M677.22,532.47c-3.81.13-7.4-1.38-10.82-2.91,5.68-2.58,12.26-1.82,17.7.99-2.2.88-4.45,1.86-6.87,1.92M695.73,532.2c-2.68-.13-5.02-1.63-7.34-2.84,4.76-1.79,9.97-.97,14.48,1.08-2.3.82-4.65,1.75-7.14,1.76M708.75,529.97c5.14-1.97,10.83-.96,15.6,1.49-4.98,2.78-10.83.71-15.6-1.49M728.65,529.94c5.5-1.8,11.43-1.06,16.79.86-5.32,2.68-11.61,1.57-16.79-.86M750.87,529.76c4.87-2.3,10.46-1.2,15.17.94-4.63,3.48-10.69,1.88-15.17-.94M779.57,533.23c-3.11-.2-5.93-1.69-8.53-3.31,5.19-1.62,10.81-.89,15.75,1.21-2.29.97-4.63,2.38-7.22,2.1M800.3,532.38c-3.08-.01-5.96-1.21-8.73-2.39,5.05-2,10.62-1.18,15.58.63-2.24.7-4.47,1.69-6.85,1.76M821.54,532.53c-3.38.18-6.46-1.46-9.38-2.91,2.71-1.28,5.59-2.97,8.71-2.46,3.75.6,7.23,2.21,10.77,3.53-3.34.7-6.67,1.61-10.09,1.84M905.4,530.78c-9.14-.2-18.27.58-27.41.2-7.47-.19-14.89.87-22.35.74-5.69-.12-11.58.75-17.08-1.12,7.53-.62,15.1-.73,22.65-.38,7.96-.14,15.92-.35,23.89-.54,1-.03,2-.06,2.99-.07,3.71-.09,7.42-.17,11.11-.22,1.83.19,3.66.29,5.51.32,1.65.03,3.32.01,4.98-.02,2.9-.07,5.79-.21,8.69-.28.05.51.11,1.02.15,1.53-4.33-.85-8.76.05-13.14-.17M942.01,534.96c-2.36,1.75-5.46.62-8.02.03-4.59-1.18-8.9-3.44-13.65-4.02-.07-.49-.12-.97-.18-1.46,4.06,1.1,7.54-1.99,10.48-4.32,2.86-2.16,7.3-3.54,10.47-1.25,2.71,2.79,3.54,7.93.9,11.01"/>
    <path class="cls-3" d="M890.71,495.35c.14,10.18-.53,20.19-1.94,29.96-.05.37-.11.74-.17,1.12-.15,1.07-.32,2.14-.51,3.2-.99.01-1.98.04-2.98.07.18-1.06.35-2.12.52-3.18.06-.38.12-.77.17-1.16,1.44-9.77,2.12-19.78,1.98-29.97-1.39-103.72-86.92-186.97-190.63-185.57-103.72,1.39-186.97,86.91-185.57,190.63.04,2.74.13,5.46.29,8.17.07,1.26.15,2.53.26,3.79-1.02-.56-2.04-1.12-3.07-1.67-.09-1.25-.16-2.5-.21-3.76-.11-2.15-.18-4.32-.21-6.49-1.42-105.34,83.13-192.19,188.47-193.61,105.34-1.42,192.19,83.13,193.61,188.47"/>
    <path class="cls-3" d="M912.02,495.06c.14,10.1-.43,20.11-1.68,29.96-.06.52-.13,1.04-.2,1.55-.13,1.05-.28,2.1-.44,3.14-1.66.03-3.33.05-4.99.02.17-1.06.32-2.12.47-3.18.07-.48.13-.97.2-1.45,1.29-9.8,1.88-19.8,1.75-29.96-1.54-114.39-95.85-206.21-210.24-204.67-113.77,1.53-205.21,94.84-204.69,208.39,0,.63,0,1.24.02,1.87,0,.54.01,1.08.04,1.62-.44-.2-.89-.39-1.35-.58-1.18-.44-2.38-.88-3.59-1.28-.01-1.13-.02-2.28,0-3.41.19-55.35,21.49-107.52,60.19-147.27,39.56-40.65,92.59-63.46,149.32-64.22,56.72-.76,110.34,20.61,150.99,60.18,40.64,39.56,63.45,92.59,64.21,149.32"/>
    <path class="cls-1" d="M473.76,700.47c-1.1-1.5-2.58-2.54-4.47-3.1,1.48-.67,2.64-1.72,3.47-3.1.83-1.39,1.25-2.9,1.25-4.54,0-1.38-.3-2.72-.9-4.01-.61-1.27-1.47-2.32-2.6-3.14-1.12-.82-2.46-1.23-4-1.23h-15.84v32.87h15.5c1.67,0,3.21-.36,4.6-1.08,1.4-.73,2.52-1.74,3.36-3.01.83-1.28,1.25-2.74,1.25-4.38,0-2-.55-3.76-1.65-5.28M453.93,684.18h11.57c1.03,0,1.94.28,2.73.83.81.57,1.44,1.3,1.9,2.2.46.91.69,1.93.69,3.03s-.24,2.04-.73,2.96c-.5.92-1.16,1.67-1.99,2.25-.84.56-1.79.85-2.88.85h-11.29v-12.13ZM471.36,708.23c-.54.94-1.26,1.7-2.16,2.29-.9.59-1.89.89-3.01.89h-12.26v-12.45h12.59c1.07,0,2.04.29,2.89.87.85.59,1.52,1.35,2.01,2.29.49.94.74,1.97.74,3.08s-.28,2.09-.81,3.03"/>
    <path class="cls-1" d="M516.89,681.36h-2.73l-13.76,32.87h3.48l4.11-10.28h15.03l4.11,10.28h3.43l-13.66-32.87ZM509,701.4l6.5-16.25,6.5,16.25h-12.99Z"/>
    <path class="cls-1" d="M574.7,701.54c1.48-.31,2.78-.94,3.87-1.9,1.1-.95,1.94-2.12,2.54-3.52.6-1.38.9-2.87.9-4.44,0-1.27-.23-2.51-.72-3.73-.47-1.22-1.15-2.34-2.04-3.33-.87-1.01-1.9-1.8-3.08-2.39-1.17-.59-2.47-.88-3.88-.88h-13.89v32.87h3.24v-12.13h9.72l7.73,12.13h3.65l-8.06-12.68ZM561.66,699.23v-15.01h10.46c1.24,0,2.36.35,3.35,1.04,1.01.7,1.82,1.6,2.41,2.73.6,1.13.91,2.36.91,3.69s-.27,2.52-.8,3.67c-.52,1.16-1.26,2.09-2.21,2.8-.96.72-2.09,1.07-3.39,1.07h-10.73Z"/>
    <polygon class="cls-1" points="608.14 681.36 608.14 684.22 619.84 684.22 619.84 714.23 623.09 714.23 623.09 684.22 634.8 684.22 634.8 681.36 608.14 681.36"/>
    <polygon class="cls-1" points="666.09 711.36 666.09 698.81 682.15 698.81 682.15 696.08 666.09 696.08 666.09 684.22 684.52 684.22 684.52 681.36 662.85 681.36 662.85 714.23 684.93 714.23 684.93 711.36 666.09 711.36"/>
    <polygon class="cls-1" points="738.45 681.4 738.45 708.76 716.88 681.36 714.19 681.36 714.19 714.23 717.43 714.23 717.43 687.33 738.68 714.23 741.69 714.23 741.69 681.4 738.45 681.4"/>
    <path class="cls-1" d="M798.21,689.48c-1.17-2.48-2.92-4.46-5.25-5.92-2.34-1.47-5.25-2.2-8.73-2.2h-11.16v32.87h11.16c3.21,0,6-.67,8.36-2.04,2.37-1.36,4.18-3.28,5.47-5.74,1.28-2.47,1.91-5.37,1.91-8.7,0-3.03-.59-5.78-1.76-8.27M795.29,704.66c-.96,2.06-2.36,3.69-4.22,4.88-1.85,1.21-4.13,1.82-6.85,1.82h-7.91v-27.13h7.91c2.69,0,4.96.57,6.81,1.74,1.85,1.16,3.26,2.76,4.24,4.79.97,2.04,1.46,4.37,1.46,6.99s-.49,4.87-1.44,6.92"/>
    <rect class="cls-1" x="829.31" y="681.36" width="3.24" height="32.87"/>
    <polygon class="cls-1" points="888.2 681.4 888.2 708.76 866.63 681.36 863.94 681.36 863.94 714.23 867.18 714.23 867.18 687.33 888.43 714.23 891.44 714.23 891.44 681.4 888.2 681.4"/>
    <path class="cls-1" d="M941.95,710.03c-1.79,1.01-3.68,1.51-5.7,1.51-1.73,0-3.33-.36-4.84-1.08-1.49-.73-2.81-1.73-3.95-3.01-1.14-1.28-2.02-2.74-2.64-4.39-.62-1.65-.92-3.41-.92-5.26s.27-3.45.81-5.09c.54-1.64,1.33-3.11,2.38-4.4,1.05-1.3,2.31-2.32,3.77-3.1,1.47-.77,3.11-1.16,4.94-1.16,2.16,0,4.12.49,5.88,1.44,1.76.96,3.17,2.46,4.22,4.49l2.49-1.67c-1.04-2.12-2.59-3.85-4.63-5.18-2.04-1.33-4.67-1.99-7.91-1.99-2.19,0-4.22.44-6.06,1.34-1.85.9-3.45,2.11-4.81,3.66-1.36,1.54-2.41,3.31-3.18,5.3-.75,1.99-1.13,4.1-1.13,6.32,0,2.09.38,4.13,1.13,6.11.76,1.97,1.84,3.76,3.22,5.37,1.4,1.6,3.02,2.88,4.9,3.82,1.88.94,3.93,1.42,6.12,1.42,4.02,0,7.54-1.68,10.55-5.06.17-.19.34-.39.51-.6v-3.42c-.17.22-.34.43-.51.64-1.48,1.78-3.02,3.11-4.63,4.01M939.26,698.07v2.5h7.31v13.66h2.73v-16.16h-10.05Z"/>
    <path class="cls-1" d="M667.2,424.82c.75,0,1.36-.61,1.36-1.36s-.61-1.37-1.36-1.37-1.37.61-1.37,1.37.61,1.36,1.37,1.36"/>
    <path class="cls-1" d="M678.38,424.26c.77,0,1.4-.62,1.4-1.4s-.62-1.4-1.4-1.4-1.4.62-1.4,1.4.62,1.4,1.4,1.4"/>
    <path class="cls-1" d="M670.53,434.12c.12.38.52.58.9.46.38-.12.58-.52.46-.9-.12-.38-.53-.58-.9-.46-.38.12-.58.52-.46.9"/>
    <path class="cls-1" d="M657.96,429.74c-.42.3-.51.88-.21,1.3.3.42.88.51,1.3.21.42-.3.51-.88.21-1.3-.3-.42-.88-.51-1.3-.21"/>
    <path class="cls-1" d="M658.86,415.93c-.79-.57-1.9-.4-2.47.39-.57.79-.4,1.9.39,2.47.79.57,1.9.4,2.47-.39.57-.79.4-1.9-.39-2.47"/>
    <path class="cls-1" d="M671.99,413.26c.34-1.04-.23-2.16-1.28-2.5-1.04-.34-2.16.23-2.5,1.27-.34,1.04.23,2.16,1.28,2.5,1.04.34,2.16-.23,2.5-1.28"/>
    <path class="cls-1" d="M689.55,423.68c.77,0,1.4-.62,1.4-1.4s-.62-1.4-1.4-1.4-1.4.62-1.4,1.4.62,1.4,1.4,1.4"/>
    <path class="cls-1" d="M644.85,423.41c-.67,0-1.21.54-1.21,1.21s.54,1.21,1.21,1.21,1.21-.54,1.21-1.21-.54-1.21-1.21-1.21"/>
    <path class="cls-1" d="M649.6,409.66c-.89-.64-2.13-.45-2.77.44-.64.89-.45,2.13.44,2.77.89.65,2.13.45,2.77-.44.65-.89.45-2.13-.44-2.77"/>
    <path class="cls-1" d="M685.87,411.12c.97-.7,1.19-2.06.48-3.03-.71-.97-2.06-1.19-3.03-.48-.97.71-1.18,2.06-.48,3.03.71.97,2.06,1.19,3.03.48"/>
    <path class="cls-1" d="M695.78,396.61c-2.09-11.92-5.86-22.42-7.4-26.38l-.2-.53h-41.9l-.19.58c-1.52,4.72-5.27,16.94-7.37,28.32l-.13.72.7.22c3.85,1.22,7.61,1.67,11.37,1.67,5.54,0,11.07-1,16.77-2.03,8.62-1.56,17.53-3.18,27.41-1.6l1.15.18-.2-1.14ZM667.13,397.54c-9.12,1.65-17.74,3.21-26.64.62,2.03-10.62,5.42-21.87,7.01-26.8h39.54c1.56,4.12,4.9,13.59,6.91,24.4-9.69-1.32-18.39.26-26.81,1.78"/>
    <path class="cls-1" d="M695.78,396.61c-2.09-11.92-5.86-22.42-7.4-26.38l-.2-.53h-41.9l-.19.58c-1.52,4.72-5.27,16.94-7.37,28.32l-.13.72.7.22c3.85,1.22,7.61,1.67,11.37,1.67,5.54,0,11.07-1,16.77-2.03,8.62-1.56,17.53-3.18,27.41-1.6l1.15.18-.2-1.14ZM667.13,397.54c-9.12,1.65-17.74,3.21-26.64.62,2.03-10.62,5.42-21.87,7.01-26.8h39.54c1.56,4.12,4.9,13.59,6.91,24.4-9.69-1.32-18.39.26-26.81,1.78"/>
    <path class="cls-1" d="M696.76,403.51l-.06-.61-.6-.12c-9.91-2.03-19-.38-27.84,1.23-5.72,1.03-11.64,2.1-17.66,2.1-4.23,0-8.1-.53-11.85-1.6l-.93-.28-.12.97c-.31,2.59-.48,4.91-.48,6.92,0,15.85,8.79,22.13,15.85,27.19,2.61,1.87,4.87,3.49,6.27,5.4l.24.33h14.24l.24-.35c1.33-1.88,3.7-3.51,6.45-5.41,7.05-4.87,16.72-11.53,16.72-27.16,0-2.7-.16-5.6-.49-8.61M679.57,437.91c-2.71,1.87-5.08,3.5-6.6,5.47h-12.56c-1.56-1.98-3.91-3.65-6.39-5.42-6.75-4.84-15.15-10.84-15.15-25.84,0-1.68.12-3.62.35-5.77,3.61.95,7.34,1.42,11.37,1.42,6.16,0,12.16-1.08,17.99-2.13,8.47-1.54,17.22-3.12,26.58-1.34.28,2.73.41,5.37.41,7.83,0,14.75-9.25,21.14-16.01,25.8"/>
    <path class="cls-1" d="M695.78,396.61c-2.09-11.92-5.86-22.42-7.4-26.38l-.2-.53h-41.9l-.19.58c-1.52,4.72-5.27,16.94-7.37,28.32l-.13.72.7.22c3.85,1.22,7.61,1.67,11.37,1.67,5.54,0,11.07-1,16.77-2.03,8.62-1.56,17.53-3.18,27.41-1.6l1.15.18-.2-1.14ZM667.13,397.54c-9.12,1.65-17.74,3.21-26.64.62,2.03-10.62,5.42-21.87,7.01-26.8h39.54c1.56,4.12,4.9,13.59,6.91,24.4-9.69-1.32-18.39.26-26.81,1.78"/>
    <path class="cls-1" d="M696.76,403.51l-.06-.61-.6-.12c-9.91-2.03-19-.38-27.84,1.23-5.72,1.03-11.64,2.1-17.66,2.1-4.23,0-8.1-.53-11.85-1.6l-.93-.28-.12.97c-.31,2.59-.48,4.91-.48,6.92,0,15.85,8.79,22.13,15.85,27.19,2.61,1.87,4.87,3.49,6.27,5.4l.24.33h14.24l.24-.35c1.33-1.88,3.7-3.51,6.45-5.41,7.05-4.87,16.72-11.53,16.72-27.16,0-2.7-.17-5.6-.49-8.61M679.57,437.91c-2.71,1.87-5.08,3.5-6.6,5.47h-12.56c-1.56-1.98-3.91-3.65-6.39-5.42-6.75-4.84-15.15-10.84-15.15-25.84,0-1.68.12-3.62.35-5.77,3.61.95,7.34,1.42,11.37,1.42,6.16,0,12.16-1.08,17.99-2.14,8.47-1.54,17.22-3.12,26.58-1.34.28,2.73.41,5.37.41,7.83,0,14.75-9.25,21.14-16.01,25.8M650.65,401.21c5.54,0,11.07-1,16.77-2.03,8.62-1.56,17.53-3.18,27.41-1.6l1.15.18-.2-1.14c-2.09-11.92-5.87-22.42-7.4-26.38l-.2-.53h-41.9l-.19.58c-1.52,4.73-5.27,16.94-7.37,28.32l-.13.72.7.22c3.85,1.22,7.61,1.67,11.37,1.67M647.5,371.36h39.54c1.56,4.12,4.9,13.59,6.91,24.4-9.7-1.32-18.39.26-26.82,1.78-9.12,1.65-17.74,3.21-26.64.62,2.02-10.62,5.42-21.87,7.01-26.8"/>
    <path class="cls-1" d="M696.76,403.51l-.06-.61-.6-.12c-9.91-2.03-19-.38-27.84,1.23-5.72,1.03-11.64,2.1-17.66,2.1-4.23,0-8.1-.53-11.85-1.6l-.93-.28-.12.97c-.31,2.59-.48,4.91-.48,6.92,0,15.85,8.79,22.13,15.85,27.19,2.61,1.87,4.87,3.49,6.27,5.4l.24.33h14.24l.24-.35c1.33-1.88,3.7-3.51,6.45-5.41,7.05-4.87,16.72-11.53,16.72-27.16,0-2.7-.16-5.6-.49-8.61M679.57,437.91c-2.71,1.87-5.08,3.5-6.6,5.47h-12.56c-1.56-1.98-3.91-3.65-6.39-5.42-6.75-4.84-15.15-10.84-15.15-25.84,0-1.68.12-3.62.35-5.77,3.61.95,7.34,1.42,11.37,1.42,6.16,0,12.16-1.08,17.99-2.13,8.47-1.54,17.22-3.12,26.58-1.34.28,2.73.41,5.37.41,7.83,0,14.75-9.25,21.14-16.01,25.8"/>
    <path class="cls-1" d="M695.78,396.61c-2.09-11.92-5.86-22.42-7.4-26.38l-.2-.53h-41.9l-.19.58c-1.52,4.72-5.27,16.94-7.37,28.32l-.13.72.7.22c3.85,1.22,7.61,1.67,11.37,1.67,5.54,0,11.07-1,16.77-2.03,8.62-1.56,17.53-3.18,27.41-1.6l1.15.18-.2-1.14ZM667.13,397.54c-9.12,1.65-17.74,3.21-26.64.62,2.03-10.62,5.42-21.87,7.01-26.8h39.54c1.56,4.12,4.9,13.59,6.91,24.4-9.69-1.32-18.39.26-26.81,1.78"/>
    <path class="cls-3" d="M802.84,394.6c-.41-2.05-1.31-4.16-2.8-6.66-2.5-4.09-5.57-7.69-9.41-11.84-2.35-2.51-5.14-5.36-8.53-7.37-1.98-1.18-4.25-1.98-6.56-2.31-.63-.1-1.28-.14-1.92-.13-2.07.03-3.99.6-5.54,1.64-.91.61-1.79,1.26-2.66,1.89-.74.55-1.48,1.11-2.19,1.59-.71.34-1.54.75-2.22,1.33-13.68,9.03-27,18.39-39.6,27.81-.28.06-.58.1-.86.16-1.55.28-3.15.55-4.55,1.37-1.63.86-3.16,1.94-4.64,2.99l-.72.51c-.36.17-.65.39-.95.61-.11.08-.22.16-.33.24-1.83,1.27-3.66,2.6-5.57,4.02-.54.4-1.1.81-1.65,1.23.01.15.01.3.01.45,0,.68-.01,1.33-.05,1.97.58-.44,1.14-.86,1.7-1.28,2.06-1.54,4.04-2.98,5.98-4.35-1.25,2.61-1.92,5.73-1.94,9.12-.01,1.21.05,2.43.2,3.66.06.64.13,1.26.24,1.88.44,2.72,1.22,5.57,2.29,8.49,2.9,7.62,7.54,14.88,13.83,21.52,5.37,5.6,11.11,9.87,17.08,12.71,3.67,1.72,6.98,2.63,10.08,2.79-8.12,4.99-16.39,9.37-24.15,13.37-8.52,4.34-17.45,8.68-26.67,12.94-.6.28-1.18.55-1.78.83-2.72,1.24-5.46,2.49-8.22,3.72-.21.1-.43.2-.65.29-.5.23-1,.45-1.51.67-.29.13-.58.26-.86.39l-.36.15c-.22.1-.43.2-.65.29l-1.89.83c-4.01,1.76-8.17,3.56-12.39,5.35-.35.13-.69.29-1.04.45-.67.32-1.33.61-2.04.74-.61.11-1.25.18-1.9.19-1.82.02-3.82-.38-6.13-1.21-3.32-1.23-6.5-3.11-9.41-5.52-.63-.53-1.25-1.07-1.85-1.66-1.11-1.04-2.16-2.17-3.17-3.38-.43-.55-.87-1.14-1.33-1.76-.09-.11-.17-.23-.25-.34-.03-.04-.07-.09-.1-.14-.36-.49-.72-1.02-1.11-1.63-.01-.01-.01-.02-.02-.03-.07-.11-.13-.21-.2-.32-2.03-3.21-3.56-6.62-4.6-10.15-1.07-3.83-1.34-7.19-.82-10.27.45-2.63,1.62-4.9,3.24-6.33,1.12-.83,2.12-1.77,3.11-2.7.42-.4.85-.81,1.29-1.21,4.25-3.92,8.07-7.39,11.62-10.6.61-.55,1.22-1.11,1.82-1.64h-1.43c-.4,0-.79-.1-1.13-.28-.42.38-.85.76-1.28,1.15-4.24,3.85-8.82,8.04-13.97,12.79-1.57,1.14-2.72,2.36-3.5,3.73-1.58,2.77-2.2,6.21-1.85,10.26.46,4.87,2.17,9.94,4.95,14.64.15.27.29.52.44.78.05.09.1.18.16.26.34.59.67,1.13,1,1.62.07.1.13.2.2.29.4.61.84,1.2,1.2,1.64.23.4.53.75.82,1.1.14.18.29.35.43.55.58.69,1.17,1.34,1.78,1.97.54.58,1.11,1.13,1.68,1.66,3.5,3.26,7.41,5.76,11.54,7.29,2.56.94,4.81,1.37,6.91,1.35.69-.01,1.36-.07,2-.18,1-.15,1.9-.56,2.78-.96.38-.18.76-.34,1.16-.5,5.93-2.51,11.2-4.81,16.1-7.01.1-.04.2-.09.3-.13,1.16-.5,2.29-1.01,3.43-1.53,2.37-1.06,4.72-2.12,7.04-3.2.52-.23,1.03-.48,1.54-.71,8.88-4.11,17.48-8.28,25.67-12.44,7.18-3.67,16.61-8.62,25.77-14.28.55-.33,1.09-.69,1.64-1.03.86-.55,1.75-1.12,2.65-1.63,2.2-1.32,3.96-3.67,4.96-6.63,1.06-3.04,1.22-6.25,1.23-8.75,3.73-4.53,7.45-9.15,11.04-13.72.27-.32.51-.64.76-.96l.47-.58c6.26-7.99,12.94-16.77,20.39-26.79,1.31-1.59,2.58-3.18,3.87-4.77l1.54-1.9c.62-.74,1.07-1.58,1.31-2.46.58-2.06.1-4.25-.28-6M717.64,403.4c-1.61,1.24-3.22,2.47-4.81,3.72,1.24-1.64,2.93-2.93,4.81-3.72M760.16,461.3c-.95,2.06-2.41,3.68-4.09,4.54-1.06.56-2.3.85-3.82.87-.45.01-.93-.01-1.44-.06,3.43-3.74,7.03-7.86,10.96-12.53-.18,2.82-.7,5.19-1.6,7.17M748.55,466.3c-.69-.14-1.36-.32-2.02-.53-.02,0-.04-.01-.08-.02-1.06-.23-3.01-1.11-4.19-1.66-.6-.29-1-.49-1-.49-5.8-2.93-11.35-7.27-16.54-12.94-5.39-5.95-9.42-12.3-12.01-18.87-.24-.59-.46-1.17-.68-1.76-.01-.03-.02-.07-.03-.1-.34-1.02-.66-2.07-.89-2.83-.01,0-.01-.01-.02-.01-.04-.17-.09-.33-.12-.5-.05-.18-.09-.33-.12-.44-.01-.04-.02-.1-.03-.14h0c-.26-1.09-.48-2.11-.65-3.12-.09-.62-.18-1.23-.24-1.84-.35-3.18-.19-6.13.47-8.73.05-.13.09-.29.12-.44.11-.44.2-.72.48-.9,4.41-3.46,7.8-6.09,11-8.48h.13c2.69-.03,5.57.59,8.55,1.87,5.35,2.31,10.37,6.12,15.36,11.62,2.45,2.74,4.64,5.62,6.54,8.57.39.63.79,1.25,1.16,1.88,2.95,4.95,5.18,10.17,6.6,15.49.84,3.15,1.32,6.24,1.44,9.17-4.39,5.3-8.84,10.41-13.22,15.2M796.06,405.84c-.19,1.04-.54,1.89-1.06,2.57-7.87,10.59-14.33,19.08-20.33,26.73-.35.46-.73.93-1.1,1.38l-.1.13c-3.22,4.09-6.56,8.26-9.93,12.33-.73-7.43-3.3-15.04-7.66-22.65l-.13-.22c-.4-.68-.8-1.34-1.21-1.98-.84-1.33-1.74-2.66-2.67-3.94-4.5-6.17-9.56-11.11-15.05-14.67-4.4-2.81-8.48-4.39-12.42-4.81,11.13-8.33,23.56-17.03,37.98-26.62.9-.73,2.11-1.14,3.44-1.16.22,0,.45,0,.68.02,2,.15,4.09.86,6.62,2.27,6.25,3.55,11.08,9.01,14.6,13.36,2.26,2.79,4.82,6.15,6.72,9.93.96,2.01,2.03,4.67,1.62,7.35M800.74,401.3c-.61.82-1.27,1.63-1.92,2.41-.25.31-.51.62-.76.93,0-1.39-.29-2.89-.84-4.45-1-2.83-2.57-5.36-3.83-7.24-1.93-2.85-4.22-5.76-7.41-9.41-3.75-4.18-7.4-7.33-11.18-9.59-2.92-1.73-5.45-2.67-7.84-2.9.17-.12.32-.23.48-.35,1.23-.93,2.39-1.8,3.82-2.18.75-.2,1.56-.31,2.39-.32,1.96-.03,4.14.5,6.3,1.53,3.45,1.7,6.25,4.47,8.61,6.93,2.95,3.17,6.34,6.88,9.05,10.99,1.33,2.02,2.91,4.74,3.45,7.76.43,1.96.8,4.18-.32,5.9"/>
    <path class="cls-3" d="M764.02,376.72c2.7,6.44,6.19,12.19,10.39,17.11,2.57,2.9,5.42,5.71,8.48,8.34,3.44,2.9,6.22,4.83,9.05,6.28.13.06.26.12.39.18.42.21.86.42,1.42.52h.04c.43,0,.79-.34.87-.81.08-.45-.14-.86-.52-1-2.46-1.03-4.72-2.56-6.41-3.77-3.07-2.24-6.2-5.02-9.56-8.49-5.18-5.25-9.42-11.86-12.62-19.65l-.02-.04-.02-.04c-.17-.26-.47-.4-.79-.4-.37,0-.7.22-.81.48-.25.39-.08.78.03,1.04.03.06.05.12.09.23"/>
    <path class="cls-4" d="M710.85,426.15c-.03-.1-.04-.15-.04-.15h.01c.01.05.02.11.03.15"/>
    <path class="cls-4" d="M712.71,431.8s-.03-.04-.04-.07c-.21-.5-.42-1.08-.63-1.69.21.59.43,1.17.68,1.76"/>
    <path class="cls-3" d="M675.43,451.6c1.93,0,3.57-1.32,3.97-3.12.3-.69,3.36-2.79,4.84-3.81,7.23-4.98,19.27-13.28,19.55-31.87.01-.23.01-.45.01-.69,0-.55-.01-1.12-.02-1.68-.46-21.82-9.77-43.86-10.18-44.81-.64-1.52-2.12-2.49-3.77-2.49h-27.23l-3.86-18.74c-.35-1.71-1.76-3.02-3.51-3.24l-34.48-4.42-1.05,8.14,31.58,4.05,2.93,14.2h-9.69c-1.76,0-3.32,1.12-3.89,2.79-.41,1.2-9.96,29.4-9.96,46.19,0,19.22,11.18,27.22,18.58,32.52,1.97,1.41,4.66,3.33,4.99,4.25.28.79.8,1.45,1.45,1.93.59.42,1.28.7,2.03.76.13.01.26.02.39.02h4.92v30.28h-.02c.01.5.01.99.02,1.49.01,1.24.03,2.48.06,3.73.02.38,0,.75-.06,1.12-.3,2.05-1.67,3.89-3.52,4.82-.43.22-.87.39-1.35.5-1.55.43-3.13,0-4.67-.24-.47-.08-.92-.15-1.38-.23-2.39-.4-4.77-.81-7.15-1.23-.07-.01-.14-.02-.22-.04l-.46-.08c-.35-.06-.71-.12-1.07-.19,0,0,0,0,0,0l-1.47-.26,1.93,2.05.78.13c.43.07.88.15,1.31.23.18.02.35.05.53.09,1.86.33,3.72.65,5.58.95,1.23.21,2.45.42,3.67.61,1.49.23,3.02-.01,4.38-.63.91-.4,1.74-.97,2.45-1.67.23-.22.45-.46.66-.73.45-.57.83-1.21,1.11-1.89.31-.69.48-1.41.55-2.15.16-1.4,0-2.85.03-4.26-.01-.65-.02-1.31-.03-1.96v-32.1h-6.58c-.4,0-.79-.1-1.13-.28-.53-.29-.96-.75-1.17-1.34-.48-1.32-2.42-2.78-5.59-5.04-7.12-5.1-17.88-12.8-17.88-31.17,0-16.52,9.46-44.48,9.87-45.66.33-1,1.26-1.66,2.31-1.66h11.73l-3.59-17.35-31.11-3.99.62-4.86,32.85,4.22c1.04.13,1.88.91,2.09,1.94l4.14,20.05h28.59c.97,0,1.86.59,2.25,1.48.41.95,9.94,23.51,10.06,45.38.01.15.01.3.01.45,0,.67-.01,1.33-.05,1.97-.81,16.83-12.01,24.55-18.8,29.23-3.53,2.43-5.16,3.68-5.48,4.73-.25,1.12-1.23,1.9-2.38,1.9h-5.84v32.41h-.01c0,.23.01.48.01.71.02,1.42.04,2.82.07,4.25.05,2.21-.04,4.59.98,6.64.13.27.29.51.49.74.93,1.24,2.42,2,3.9,2.48,2.92.92,5.99,1.26,9.02,1.63.31.03.61.08.91.11h.14s6.59.75,6.59.75l3.82-1.3-4.78-.51-1.56-.15-2.91-.31c-2.2-.24-4.4-.52-6.6-.86-2.06-.4-4.25-.71-6.05-1.84-.14-.09-.28-.18-.42-.28-.51-.38-.87-.85-1.13-1.38-.61-1.23-.66-2.77-.7-4.11-.04-1.93-.07-3.84-.1-5.78v-31.55h4.18Z"/>
  </g>
</svg>